<svg xmlns="http://www.w3.org/2000/svg" width="32" height="32" viewBox="0 0 32 32"><title>cross</title><path d="M31.708 25.708c0 0 0 0 0 0l-9.708-9.708 9.708-9.708c0 0 0 0 0 0 .105-.105.18-.227.229-.357.133-.356.057-.771-.229-1.057l-4.586-4.586c-.286-.286-.702-.361-1.057-.229-.13.048-.252.124-.357.228.0.0.0.0.0.0l-9.708 9.708-9.708-9.708c0 0 0 0 0 0-.105-.104-.227-.18-.357-.228-.356-.133-.771-.057-1.057.229l-4.586 4.586c-.286.286-.361.702-.229 1.057.049.13.124.252.229.357.0.0.0.0.0.0L10 16l-9.708 9.708c0 0 0 0 0 0-.104.105-.18.227-.229.357-.133.355-.057.771.229 1.057l4.586 4.586c.286.286.702.361 1.057.229.13-.049.252-.124.357-.229.0.0.0.0.0.0L16 22l9.708 9.708c0 0 0 0 0 0 .105.105.227.18.357.229.356.133.771.057 1.057-.229l4.586-4.586c.286-.286.362-.702.229-1.057-.049-.13-.124-.252-.229-.357z"/></svg>